<mxfile host="app.diagrams.net" agent="Mozilla/5.0 (Windows NT 10.0; Win64; x64) AppleWebKit/537.36 (KHTML, like Gecko) Chrome/134.0.0.0 Safari/537.36" version="26.2.8">
  <diagram name="Page-1" id="e7e014a7-5840-1c2e-5031-d8a46d1fe8dd">
    <mxGraphModel dx="1198" dy="813" grid="1" gridSize="10" guides="1" tooltips="1" connect="1" arrows="1" fold="1" page="1" pageScale="1" pageWidth="1169" pageHeight="826" background="none" math="0" shadow="0">
      <root>
        <mxCell id="0" />
        <mxCell id="1" parent="0" />
        <mxCell id="2" value="Server Thread" style="swimlane;whiteSpace=wrap" parent="1" vertex="1">
          <mxGeometry x="40" y="120" width="270" height="570" as="geometry" />
        </mxCell>
        <mxCell id="5" value="" style="ellipse;shape=startState;fillColor=#000000;strokeColor=#ff0000;" parent="2" vertex="1">
          <mxGeometry x="100" y="40" width="30" height="30" as="geometry" />
        </mxCell>
        <mxCell id="6" value="" style="edgeStyle=elbowEdgeStyle;elbow=horizontal;verticalAlign=bottom;endArrow=open;endSize=8;strokeColor=#FF0000;endFill=1;rounded=0" parent="2" source="5" target="7" edge="1">
          <mxGeometry x="100" y="40" as="geometry">
            <mxPoint x="115" y="110" as="targetPoint" />
          </mxGeometry>
        </mxCell>
        <mxCell id="7" value="idle" style="" parent="2" vertex="1">
          <mxGeometry x="60" y="110" width="110" height="50" as="geometry" />
        </mxCell>
        <mxCell id="8" value="New Request" style="" parent="2" vertex="1">
          <mxGeometry x="60" y="220" width="110" height="50" as="geometry" />
        </mxCell>
        <mxCell id="9" value="" style="endArrow=open;strokeColor=#FF0000;endFill=1;rounded=0" parent="2" source="7" target="8" edge="1">
          <mxGeometry relative="1" as="geometry" />
        </mxCell>
        <mxCell id="10" value="Handle Request" style="" parent="2" vertex="1">
          <mxGeometry x="60" y="325" width="110" height="50" as="geometry" />
        </mxCell>
        <mxCell id="11" value="" style="endArrow=open;strokeColor=#FF0000;endFill=1;rounded=0" parent="2" source="8" target="10" edge="1">
          <mxGeometry relative="1" as="geometry" />
        </mxCell>
        <mxCell id="12" value="" style="edgeStyle=elbowEdgeStyle;elbow=horizontal;strokeColor=#FF0000;endArrow=open;endFill=1;rounded=0" parent="2" source="10" target="7" edge="1">
          <mxGeometry width="100" height="100" relative="1" as="geometry">
            <mxPoint x="160" y="290" as="sourcePoint" />
            <mxPoint x="260" y="190" as="targetPoint" />
            <Array as="points">
              <mxPoint x="30" y="250" />
            </Array>
          </mxGeometry>
        </mxCell>
        <mxCell id="u_SF2fGlRjaRFKHRYud3-41" value="Request Thread" style="swimlane;whiteSpace=wrap" parent="1" vertex="1">
          <mxGeometry x="310" y="120" width="800" height="570" as="geometry" />
        </mxCell>
        <mxCell id="u_SF2fGlRjaRFKHRYud3-42" value="" style="ellipse;shape=startState;fillColor=#000000;strokeColor=#ff0000;" parent="u_SF2fGlRjaRFKHRYud3-41" vertex="1">
          <mxGeometry x="100" y="40" width="30" height="30" as="geometry" />
        </mxCell>
        <mxCell id="u_SF2fGlRjaRFKHRYud3-43" value="" style="edgeStyle=elbowEdgeStyle;elbow=horizontal;verticalAlign=bottom;endArrow=open;endSize=8;strokeColor=#FF0000;endFill=1;rounded=0" parent="u_SF2fGlRjaRFKHRYud3-41" source="u_SF2fGlRjaRFKHRYud3-42" target="u_SF2fGlRjaRFKHRYud3-44" edge="1">
          <mxGeometry x="100" y="40" as="geometry">
            <mxPoint x="115" y="110" as="targetPoint" />
          </mxGeometry>
        </mxCell>
        <mxCell id="u_SF2fGlRjaRFKHRYud3-44" value="Initiate class" style="" parent="u_SF2fGlRjaRFKHRYud3-41" vertex="1">
          <mxGeometry x="60" y="110" width="110" height="50" as="geometry" />
        </mxCell>
        <mxCell id="u_SF2fGlRjaRFKHRYud3-93" style="edgeStyle=orthogonalEdgeStyle;rounded=0;orthogonalLoop=1;jettySize=auto;html=1;exitX=1;exitY=0.5;exitDx=0;exitDy=0;entryX=0;entryY=0.5;entryDx=0;entryDy=0;strokeColor=#FF3333;startArrow=blockThin;startFill=1;" parent="u_SF2fGlRjaRFKHRYud3-41" source="u_SF2fGlRjaRFKHRYud3-45" target="u_SF2fGlRjaRFKHRYud3-81" edge="1">
          <mxGeometry relative="1" as="geometry" />
        </mxCell>
        <mxCell id="u_SF2fGlRjaRFKHRYud3-45" value="request method" style="" parent="u_SF2fGlRjaRFKHRYud3-41" vertex="1">
          <mxGeometry x="60" y="220" width="110" height="50" as="geometry" />
        </mxCell>
        <mxCell id="u_SF2fGlRjaRFKHRYud3-46" value="" style="endArrow=open;strokeColor=#FF0000;endFill=1;rounded=0" parent="u_SF2fGlRjaRFKHRYud3-41" source="u_SF2fGlRjaRFKHRYud3-44" target="u_SF2fGlRjaRFKHRYud3-45" edge="1">
          <mxGeometry relative="1" as="geometry" />
        </mxCell>
        <mxCell id="u_SF2fGlRjaRFKHRYud3-55" style="edgeStyle=orthogonalEdgeStyle;rounded=0;orthogonalLoop=1;jettySize=auto;html=1;exitX=0.5;exitY=1;exitDx=0;exitDy=0;entryX=0.5;entryY=0;entryDx=0;entryDy=0;strokeColor=light-dark(#fa0000, #ededed);" parent="u_SF2fGlRjaRFKHRYud3-41" source="u_SF2fGlRjaRFKHRYud3-47" target="u_SF2fGlRjaRFKHRYud3-53" edge="1">
          <mxGeometry relative="1" as="geometry" />
        </mxCell>
        <mxCell id="u_SF2fGlRjaRFKHRYud3-47" value="return result" style="" parent="u_SF2fGlRjaRFKHRYud3-41" vertex="1">
          <mxGeometry x="60" y="325" width="110" height="50" as="geometry" />
        </mxCell>
        <mxCell id="u_SF2fGlRjaRFKHRYud3-48" value="" style="endArrow=open;strokeColor=#FF0000;endFill=1;rounded=0" parent="u_SF2fGlRjaRFKHRYud3-41" source="u_SF2fGlRjaRFKHRYud3-45" target="u_SF2fGlRjaRFKHRYud3-47" edge="1">
          <mxGeometry relative="1" as="geometry" />
        </mxCell>
        <mxCell id="u_SF2fGlRjaRFKHRYud3-53" value="" style="ellipse;shape=endState;fillColor=#000000;strokeColor=#ff0000" parent="u_SF2fGlRjaRFKHRYud3-41" vertex="1">
          <mxGeometry x="100" y="470" width="30" height="30" as="geometry" />
        </mxCell>
        <mxCell id="u_SF2fGlRjaRFKHRYud3-62" value="Query rasterdb" style="rounded=0;whiteSpace=wrap;html=1;" parent="u_SF2fGlRjaRFKHRYud3-41" vertex="1">
          <mxGeometry x="360" y="110" width="120" height="50" as="geometry" />
        </mxCell>
        <mxCell id="u_SF2fGlRjaRFKHRYud3-77" value="consult configuration" style="rounded=0;whiteSpace=wrap;html=1;" parent="u_SF2fGlRjaRFKHRYud3-41" vertex="1">
          <mxGeometry x="360" y="170" width="120" height="47" as="geometry" />
        </mxCell>
        <mxCell id="u_SF2fGlRjaRFKHRYud3-78" value="consult jobs" style="rounded=0;whiteSpace=wrap;html=1;" parent="u_SF2fGlRjaRFKHRYud3-41" vertex="1">
          <mxGeometry x="360" y="220" width="120" height="50" as="geometry" />
        </mxCell>
        <mxCell id="u_SF2fGlRjaRFKHRYud3-79" value="modify job" style="rounded=0;whiteSpace=wrap;html=1;" parent="u_SF2fGlRjaRFKHRYud3-41" vertex="1">
          <mxGeometry x="360" y="275" width="120" height="50" as="geometry" />
        </mxCell>
        <mxCell id="u_SF2fGlRjaRFKHRYud3-80" value="create job" style="rounded=0;whiteSpace=wrap;html=1;" parent="u_SF2fGlRjaRFKHRYud3-41" vertex="1">
          <mxGeometry x="360" y="330" width="120" height="50" as="geometry" />
        </mxCell>
        <mxCell id="u_SF2fGlRjaRFKHRYud3-81" value="options" style="rhombus;whiteSpace=wrap;html=1;" parent="u_SF2fGlRjaRFKHRYud3-41" vertex="1">
          <mxGeometry x="200" y="205" width="55" height="80" as="geometry" />
        </mxCell>
        <mxCell id="u_SF2fGlRjaRFKHRYud3-85" value="" style="endArrow=classic;html=1;rounded=0;exitX=0.5;exitY=0;exitDx=0;exitDy=0;entryX=0;entryY=0.5;entryDx=0;entryDy=0;strokeColor=#FF3333;startArrow=blockThin;startFill=1;" parent="u_SF2fGlRjaRFKHRYud3-41" source="u_SF2fGlRjaRFKHRYud3-81" target="u_SF2fGlRjaRFKHRYud3-62" edge="1">
          <mxGeometry width="50" height="50" relative="1" as="geometry">
            <mxPoint x="320" y="220" as="sourcePoint" />
            <mxPoint x="370" y="170" as="targetPoint" />
          </mxGeometry>
        </mxCell>
        <mxCell id="u_SF2fGlRjaRFKHRYud3-86" value="" style="endArrow=classic;html=1;rounded=0;entryX=0;entryY=0.5;entryDx=0;entryDy=0;exitX=1;exitY=0;exitDx=0;exitDy=0;strokeColor=#FF3333;startArrow=blockThin;startFill=1;" parent="u_SF2fGlRjaRFKHRYud3-41" source="u_SF2fGlRjaRFKHRYud3-81" target="u_SF2fGlRjaRFKHRYud3-77" edge="1">
          <mxGeometry width="50" height="50" relative="1" as="geometry">
            <mxPoint x="320" y="220" as="sourcePoint" />
            <mxPoint x="370" y="170" as="targetPoint" />
          </mxGeometry>
        </mxCell>
        <mxCell id="u_SF2fGlRjaRFKHRYud3-87" value="" style="endArrow=classic;html=1;rounded=0;exitX=1;exitY=0.5;exitDx=0;exitDy=0;entryX=0;entryY=0.5;entryDx=0;entryDy=0;strokeColor=#FF3333;startArrow=blockThin;startFill=1;" parent="u_SF2fGlRjaRFKHRYud3-41" source="u_SF2fGlRjaRFKHRYud3-81" target="u_SF2fGlRjaRFKHRYud3-78" edge="1">
          <mxGeometry width="50" height="50" relative="1" as="geometry">
            <mxPoint x="320" y="220" as="sourcePoint" />
            <mxPoint x="370" y="170" as="targetPoint" />
          </mxGeometry>
        </mxCell>
        <mxCell id="u_SF2fGlRjaRFKHRYud3-88" value="" style="endArrow=classic;html=1;rounded=0;exitX=1;exitY=1;exitDx=0;exitDy=0;entryX=0;entryY=0.5;entryDx=0;entryDy=0;strokeColor=#FF3333;startArrow=blockThin;startFill=1;" parent="u_SF2fGlRjaRFKHRYud3-41" source="u_SF2fGlRjaRFKHRYud3-81" target="u_SF2fGlRjaRFKHRYud3-79" edge="1">
          <mxGeometry width="50" height="50" relative="1" as="geometry">
            <mxPoint x="320" y="220" as="sourcePoint" />
            <mxPoint x="370" y="170" as="targetPoint" />
          </mxGeometry>
        </mxCell>
        <mxCell id="u_SF2fGlRjaRFKHRYud3-89" value="" style="endArrow=classic;html=1;rounded=0;exitX=0.545;exitY=0.925;exitDx=0;exitDy=0;exitPerimeter=0;entryX=0;entryY=0.5;entryDx=0;entryDy=0;strokeColor=#FF3333;startArrow=blockThin;startFill=1;" parent="u_SF2fGlRjaRFKHRYud3-41" source="u_SF2fGlRjaRFKHRYud3-81" target="u_SF2fGlRjaRFKHRYud3-80" edge="1">
          <mxGeometry width="50" height="50" relative="1" as="geometry">
            <mxPoint x="320" y="220" as="sourcePoint" />
            <mxPoint x="370" y="170" as="targetPoint" />
          </mxGeometry>
        </mxCell>
        <mxCell id="u_SF2fGlRjaRFKHRYud3-94" value="Query rasterdb" style="rounded=0;whiteSpace=wrap;html=1;" parent="u_SF2fGlRjaRFKHRYud3-41" vertex="1">
          <mxGeometry x="360" y="110" width="120" height="50" as="geometry" />
        </mxCell>
        <mxCell id="u_SF2fGlRjaRFKHRYud3-98" value="PorcessManager Thread" style="swimlane;whiteSpace=wrap;html=1;" parent="u_SF2fGlRjaRFKHRYud3-41" vertex="1">
          <mxGeometry x="630" width="170" height="570" as="geometry" />
        </mxCell>
        <mxCell id="u_SF2fGlRjaRFKHRYud3-99" value="Job List" style="shape=internalStorage;whiteSpace=wrap;html=1;backgroundOutline=1;" parent="u_SF2fGlRjaRFKHRYud3-98" vertex="1">
          <mxGeometry x="60" y="195" width="80" height="80" as="geometry" />
        </mxCell>
        <mxCell id="u_SF2fGlRjaRFKHRYud3-102" value="Job creation" style="rounded=0;whiteSpace=wrap;html=1;" parent="u_SF2fGlRjaRFKHRYud3-98" vertex="1">
          <mxGeometry x="40" y="330" width="120" height="60" as="geometry" />
        </mxCell>
        <mxCell id="u_SF2fGlRjaRFKHRYud3-103" value="" style="endArrow=classic;html=1;rounded=0;entryX=0.5;entryY=1;entryDx=0;entryDy=0;exitX=0.5;exitY=0;exitDx=0;exitDy=0;strokeColor=#FF3333;" parent="u_SF2fGlRjaRFKHRYud3-98" source="u_SF2fGlRjaRFKHRYud3-102" target="u_SF2fGlRjaRFKHRYud3-99" edge="1">
          <mxGeometry width="50" height="50" relative="1" as="geometry">
            <mxPoint x="100" y="320" as="sourcePoint" />
            <mxPoint x="160" y="280" as="targetPoint" />
          </mxGeometry>
        </mxCell>
        <mxCell id="u_SF2fGlRjaRFKHRYud3-101" value="" style="endArrow=classic;html=1;rounded=0;entryX=0;entryY=0.5;entryDx=0;entryDy=0;startArrow=block;startFill=1;strokeColor=#FF0000;" parent="u_SF2fGlRjaRFKHRYud3-41" target="u_SF2fGlRjaRFKHRYud3-99" edge="1">
          <mxGeometry width="50" height="50" relative="1" as="geometry">
            <mxPoint x="480" y="250" as="sourcePoint" />
            <mxPoint x="530" y="200" as="targetPoint" />
          </mxGeometry>
        </mxCell>
        <mxCell id="u_SF2fGlRjaRFKHRYud3-105" value="" style="endArrow=classic;html=1;rounded=0;entryX=0;entryY=0.5;entryDx=0;entryDy=0;exitX=1;exitY=0.5;exitDx=0;exitDy=0;startArrow=block;startFill=1;strokeColor=#FF0000;" parent="u_SF2fGlRjaRFKHRYud3-41" source="u_SF2fGlRjaRFKHRYud3-80" target="u_SF2fGlRjaRFKHRYud3-102" edge="1">
          <mxGeometry width="50" height="50" relative="1" as="geometry">
            <mxPoint x="470" y="300" as="sourcePoint" />
            <mxPoint x="520" y="250" as="targetPoint" />
          </mxGeometry>
        </mxCell>
        <mxCell id="u_SF2fGlRjaRFKHRYud3-106" value="" style="endArrow=classic;html=1;rounded=0;entryX=0;entryY=0.75;entryDx=0;entryDy=0;exitX=1;exitY=0.5;exitDx=0;exitDy=0;startArrow=blockThin;startFill=1;strokeColor=#FF0000;" parent="u_SF2fGlRjaRFKHRYud3-41" source="u_SF2fGlRjaRFKHRYud3-79" target="u_SF2fGlRjaRFKHRYud3-99" edge="1">
          <mxGeometry width="50" height="50" relative="1" as="geometry">
            <mxPoint x="470" y="300" as="sourcePoint" />
            <mxPoint x="520" y="250" as="targetPoint" />
          </mxGeometry>
        </mxCell>
        <mxCell id="posXyBGKpNEiVSw1CuLg-12" value="raster_database" style="shape=internalStorage;whiteSpace=wrap;html=1;backgroundOutline=1;" vertex="1" parent="u_SF2fGlRjaRFKHRYud3-41">
          <mxGeometry x="520" y="110" width="100" height="50" as="geometry" />
        </mxCell>
        <mxCell id="posXyBGKpNEiVSw1CuLg-13" value="openeoip_config" style="shape=internalStorage;whiteSpace=wrap;html=1;backgroundOutline=1;" vertex="1" parent="u_SF2fGlRjaRFKHRYud3-41">
          <mxGeometry x="520" y="173.5" width="100" height="40" as="geometry" />
        </mxCell>
        <mxCell id="posXyBGKpNEiVSw1CuLg-16" value="" style="endArrow=classic;html=1;rounded=0;entryX=1;entryY=0.5;entryDx=0;entryDy=0;exitX=0;exitY=0.5;exitDx=0;exitDy=0;strokeColor=#FF3333;" edge="1" parent="u_SF2fGlRjaRFKHRYud3-41" source="posXyBGKpNEiVSw1CuLg-12" target="u_SF2fGlRjaRFKHRYud3-94">
          <mxGeometry width="50" height="50" relative="1" as="geometry">
            <mxPoint x="520" y="140" as="sourcePoint" />
            <mxPoint x="480" y="100" as="targetPoint" />
          </mxGeometry>
        </mxCell>
        <mxCell id="posXyBGKpNEiVSw1CuLg-18" value="" style="endArrow=classic;html=1;rounded=0;exitX=0;exitY=0.5;exitDx=0;exitDy=0;entryX=1;entryY=0.5;entryDx=0;entryDy=0;strokeColor=#FF0000;" edge="1" parent="u_SF2fGlRjaRFKHRYud3-41" source="posXyBGKpNEiVSw1CuLg-13" target="u_SF2fGlRjaRFKHRYud3-77">
          <mxGeometry width="50" height="50" relative="1" as="geometry">
            <mxPoint x="600" y="320" as="sourcePoint" />
            <mxPoint x="650" y="270" as="targetPoint" />
          </mxGeometry>
        </mxCell>
        <mxCell id="u_SF2fGlRjaRFKHRYud3-52" style="edgeStyle=orthogonalEdgeStyle;rounded=0;orthogonalLoop=1;jettySize=auto;html=1;exitX=1;exitY=0.5;exitDx=0;exitDy=0;entryX=0;entryY=0.5;entryDx=0;entryDy=0;fillColor=#f8cecc;strokeColor=#FF3333;" parent="1" source="10" target="u_SF2fGlRjaRFKHRYud3-44" edge="1">
          <mxGeometry relative="1" as="geometry" />
        </mxCell>
      </root>
    </mxGraphModel>
  </diagram>
</mxfile>
